<svg width="867" height="308" viewBox="0 0 867 308" fill="none" xmlns="http://www.w3.org/2000/svg">
<rect width="307.08" height="307.08" rx="34.8954" fill="url(#paint0_linear_2861_2)"/>
<g filter="url(#filter0_i_2861_2)">
<path d="M61.3724 192.847L72.176 174.669C78.3495 180.328 84.866 183.415 94.9837 183.415C113.333 183.415 123.622 167.81 123.622 150.49V148.089C118.134 155.806 106.645 162.837 94.1262 162.837C73.5479 162.837 55.0274 150.147 55.0274 125.796C55.0274 103.502 72.862 86.5253 98.9279 86.5253C133.568 86.5253 148.144 113.277 148.144 145.688C148.144 180.157 128.766 204.679 94.9837 204.679C81.0933 204.679 69.4322 200.049 61.3724 192.847ZM123.279 131.626C122.421 120.651 116.248 107.618 99.9568 107.618C86.9238 107.618 79.8929 116.707 79.8929 124.767C79.8929 136.942 90.0106 142.258 100.986 142.258C109.56 142.258 117.963 138.314 123.279 131.626ZM165.704 192.847L176.508 174.669C182.681 180.328 189.198 183.415 199.316 183.415C217.665 183.415 227.954 167.81 227.954 150.49V148.089C222.466 155.806 210.977 162.837 198.458 162.837C177.88 162.837 159.359 150.147 159.359 125.796C159.359 103.502 177.194 86.5253 203.26 86.5253C237.9 86.5253 252.476 113.277 252.476 145.688C252.476 180.157 233.098 204.679 199.316 204.679C185.425 204.679 173.764 200.049 165.704 192.847ZM227.611 131.626C226.753 120.651 220.58 107.618 204.289 107.618C191.256 107.618 184.225 116.707 184.225 124.767C184.225 136.942 194.343 142.258 205.318 142.258C213.892 142.258 222.295 138.314 227.611 131.626Z" fill="white"/>
<path d="M342.312 202.793V88.4117H395.815C420.681 88.4117 434.228 105.217 434.228 125.281C434.228 145.174 420.509 161.808 395.815 161.808H366.663V202.793H342.312ZM409.363 125.11C409.363 115.678 402.16 109.333 392.557 109.333H366.663V140.886H392.557C402.16 140.886 409.363 134.713 409.363 125.11ZM495.19 202.793V194.219C489.531 200.907 479.757 204.851 468.953 204.851C455.749 204.851 440.143 195.934 440.143 177.413C440.143 158.035 455.749 151.004 468.953 151.004C479.928 151.004 489.703 154.434 495.19 161.122V149.632C495.19 141.229 487.988 135.742 477.013 135.742C468.096 135.742 459.864 139 452.833 145.517L444.602 130.94C454.72 122.023 467.753 117.907 480.785 117.907C499.649 117.907 516.969 125.453 516.969 149.289V202.793H495.19ZM495.19 182.901V172.611C491.589 167.81 484.73 165.409 477.699 165.409C469.124 165.409 462.093 170.039 462.093 177.927C462.093 185.644 469.124 190.103 477.699 190.103C484.73 190.103 491.589 187.702 495.19 182.901ZM560.35 234.346H538.571V119.965H560.35V130.426C566.695 122.366 575.783 117.907 585.901 117.907C607.165 117.907 622.599 133.684 622.599 161.293C622.599 188.903 607.165 204.851 585.901 204.851C576.126 204.851 567.038 200.735 560.35 192.161V234.346ZM599.963 161.293C599.963 147.06 591.56 137.285 579.042 137.285C572.011 137.285 563.951 141.401 560.35 146.717V176.041C563.951 181.186 572.011 185.473 579.042 185.473C591.56 185.473 599.963 175.698 599.963 161.293ZM633.568 161.293C633.568 137.285 651.231 117.907 676.439 117.907C701.133 117.907 717.939 136.428 717.939 163.523V168.324H656.375C657.747 178.785 666.15 187.531 680.212 187.531C687.929 187.531 697.018 184.444 702.334 179.299L711.937 193.361C703.534 201.078 690.673 204.851 677.811 204.851C652.603 204.851 633.568 187.874 633.568 161.293ZM676.439 135.227C662.892 135.227 657.061 145.345 656.032 153.576H696.846C696.332 145.688 690.844 135.227 676.439 135.227ZM733.67 202.793V119.965H755.449V131.283C761.279 123.909 771.568 118.079 781.858 118.079V139.343C780.314 139 778.256 138.829 775.856 138.829C768.653 138.829 759.05 142.773 755.449 148.089V202.793H733.67ZM788.263 191.989L797.695 176.727C803.697 182.386 816.044 188.045 826.333 188.045C835.765 188.045 840.223 184.787 840.223 179.642C840.223 173.812 833.021 171.754 823.589 169.868C809.356 167.124 791.007 163.694 791.007 143.973C791.007 130.083 803.182 117.907 824.961 117.907C839.023 117.907 850.169 122.709 858.229 129.225L849.655 144.145C844.682 138.829 835.25 134.541 825.132 134.541C817.244 134.541 812.099 137.457 812.099 142.258C812.099 147.403 818.616 149.289 827.876 151.176C842.11 153.919 861.145 157.692 861.145 178.27C861.145 193.533 848.283 204.851 825.304 204.851C810.899 204.851 797.009 200.049 788.263 191.989Z" fill="#02200E"/>
</g>
<defs>
<filter id="filter0_i_2861_2" x="55.0312" y="86.5254" width="806.109" height="151.808" filterUnits="userSpaceOnUse" color-interpolation-filters="sRGB">
<feFlood flood-opacity="0" result="BackgroundImageFix"/>
<feBlend mode="normal" in="SourceGraphic" in2="BackgroundImageFix" result="shape"/>
<feColorMatrix in="SourceAlpha" type="matrix" values="0 0 0 0 0 0 0 0 0 0 0 0 0 0 0 0 0 0 127 0" result="hardAlpha"/>
<feOffset dy="3.98805"/>
<feGaussianBlur stdDeviation="1.99403"/>
<feComposite in2="hardAlpha" operator="arithmetic" k2="-1" k3="1"/>
<feColorMatrix type="matrix" values="0 0 0 0 0.991211 0 0 0 0 0.991211 0 0 0 0 0.991211 0 0 0 0.59 0"/>
<feBlend mode="normal" in2="shape" result="effect1_innerShadow_2861_2"/>
</filter>
<linearGradient id="paint0_linear_2861_2" x1="153.54" y1="-3.09018e-06" x2="127.618" y2="-50.3491" gradientUnits="userSpaceOnUse">
<stop stop-color="#011F0D"/>
<stop offset="1" stop-color="#119D49"/>
</linearGradient>
</defs>
</svg>
